{
    "asset" : {
        "generator" : "Khronos glTF Blender I/O v1.7.33",
        "version" : "2.0"
    },
    "scene" : 0,
    "scenes" : [
        {
            "name" : "Scene",
            "nodes" : [
                24
            ]
        }
    ],
    "nodes" : [
        {
            "mesh" : 0,
            "name" : "Object_7"
        },
        {
            "name" : "CATRigHub001Bone001Bone001Bone001Bone001_04",
            "rotation" : [
                -0.08715568482875824,
                2.0128376534983314e-28,
                -2.875316697519177e-14,
                0.9961947202682495
            ],
            "translation" : [
                0.6950466632843018,
                41.63493728637695,
                2.0444038455025293e-05
            ]
        },
        {
            "children" : [
                1
            ],
            "name" : "CATRigHub001Bone001Bone001Bone001_03",
            "rotation" : [
                1.4293680984916318e-21,
                0,
                -2.842170943040401e-14,
                1
            ],
            "translation" : [
                0.743821382522583,
                40.64396286010742,
                1.65768651640974e-05
            ]
        },
        {
            "children" : [
                2
            ],
            "name" : "CATRigHub001Bone001Bone001_02",
            "rotation" : [
                1.641126335305207e-21,
                7.574787019848372e-09,
                -4.263256414560601e-14,
                1
            ],
            "translation" : [
                -3.890369176864624,
                44.32125473022461,
                -2.1120333258295432e-05
            ]
        },
        {
            "children" : [
                3
            ],
            "name" : "CATRigHub001Bone001_01",
            "rotation" : [
                0.7071068286895752,
                -0.7071068286895752,
                -1.0712366993459455e-08,
                5.338508302088485e-08
            ],
            "translation" : [
                -48.58704376220703,
                11.103836059570312,
                1.090577006834792e-05
            ]
        },
        {
            "name" : "CATRigHub001Bone002Bone001_06",
            "rotation" : [
                -0.42261677980422974,
                9.514778298580495e-08,
                -2.251281472354094e-08,
                0.9063085913658142
            ],
            "translation" : [
                2.5075822122744285e-05,
                45.418453216552734,
                -4.39505672454834
            ]
        },
        {
            "children" : [
                5
            ],
            "name" : "CATRigHub001Bone002_05",
            "rotation" : [
                0.7071068286895752,
                3.2725777773220175e-30,
                0.7071068286895752,
                7.486785395195881e-23
            ],
            "scale" : [
                1,
                0.9999999403953552,
                1
            ],
            "translation" : [
                12.462860107421875,
                -12.490516662597656,
                1.9676866941154003e-05
            ]
        },
        {
            "name" : "CATRigHub001Bone003Bone002_08",
            "rotation" : [
                0.21643900871276855,
                6.545703001847869e-08,
                1.0675018202732645e-08,
                0.9762961268424988
            ],
            "scale" : [
                1.0000001192092896,
                1,
                1.0000001192092896
            ],
            "translation" : [
                2.887016762542771e-06,
                30.405668258666992,
                1.5224649906158447
            ]
        },
        {
            "children" : [
                7
            ],
            "name" : "CATRigHub001Bone003_07",
            "rotation" : [
                0.12278801947832108,
                -0.6963642239570618,
                0.12278816103935242,
                0.6963642835617065
            ],
            "translation" : [
                26.578292846679688,
                30.004194259643555,
                -1.784228516044095e-05
            ]
        },
        {
            "name" : "CATRigHub001Bone004Bone001Bone001_011",
            "rotation" : [
                2.7703761507069657e-09,
                -1.0698852827978333e-14,
                -0.08715568482875824,
                0.9961947202682495
            ],
            "translation" : [
                2.216006032540463e-05,
                84.94473266601562,
                -8.24219799041748
            ]
        },
        {
            "name" : "CATRigHub001Bone004Bone001Bone002Bone001Bone001_014",
            "rotation" : [
                -2.1697298961953493e-06,
                1.960233248610166e-06,
                -0.08716338872909546,
                0.9961941242218018
            ],
            "scale" : [
                0.9999997615814209,
                0.9999998807907104,
                1
            ],
            "translation" : [
                3.437784433364868,
                43.514469146728516,
                -0.00010848225792869925
            ]
        },
        {
            "children" : [
                10
            ],
            "name" : "CATRigHub001Bone004Bone001Bone002Bone001_013",
            "rotation" : [
                -1.644881876927684e-06,
                3.265553232267848e-07,
                -0.3007030189037323,
                0.9537179470062256
            ],
            "scale" : [
                1.0000001192092896,
                1.0000001192092896,
                1.0000001192092896
            ],
            "translation" : [
                4.769149303436279,
                42.34954071044922,
                -0.00014995688979979604
            ]
        },
        {
            "children" : [
                11
            ],
            "name" : "CATRigHub001Bone004Bone001Bone002_012",
            "rotation" : [
                -0.09960190951824188,
                -0.14224714040756226,
                -0.8067072629928589,
                0.564861536026001
            ],
            "scale" : [
                0.9999998807907104,
                1,
                0.9999999403953552
            ],
            "translation" : [
                9.742966651916504,
                62.70407485961914,
                19.488704681396484
            ]
        },
        {
            "name" : "CATRigHub001Bone004Bone001Bone003Bone001Bone001_017",
            "rotation" : [
                1.102171154343523e-06,
                -1.6542862795176916e-06,
                0.13052664697170258,
                0.9914448261260986
            ],
            "scale" : [
                0.9999999403953552,
                1.0000003576278687,
                1.0000001192092896
            ],
            "translation" : [
                -1.8033686876296997,
                41.34978485107422,
                6.527641380671412e-05
            ]
        },
        {
            "children" : [
                13
            ],
            "name" : "CATRigHub001Bone004Bone001Bone003Bone001_016",
            "rotation" : [
                -1.8304353943676688e-06,
                -1.3617247986985603e-06,
                0.21643942594528198,
                0.976296067237854
            ],
            "translation" : [
                0.09106443077325821,
                39.42970275878906,
                1.3839414350513835e-05
            ]
        },
        {
            "children" : [
                14
            ],
            "name" : "CATRigHub001Bone004Bone001Bone003_015",
            "rotation" : [
                -0.08018413186073303,
                0.15402887761592865,
                0.8735348582267761,
                0.45473340153694153
            ],
            "scale" : [
                0.9999998211860657,
                0.9999998211860657,
                0.9999999403953552
            ],
            "translation" : [
                -14.762083053588867,
                62.478939056396484,
                19.488691329956055
            ]
        },
        {
            "children" : [
                9,
                12,
                15
            ],
            "name" : "CATRigHub001Bone004Bone001_010",
            "rotation" : [
                -1.4210854715202004e-14,
                -8.318487232372718e-09,
                1.7658976765675544e-14,
                1
            ],
            "translation" : [
                1.1897584045073017e-05,
                66.01799011230469,
                -6.566311836242676
            ]
        },
        {
            "children" : [
                16
            ],
            "name" : "CATRigHub001Bone004_09",
            "rotation" : [
                -0.5000001192092896,
                -0.5,
                -0.49999991059303284,
                0.5
            ],
            "translation" : [
                44.57770919799805,
                -0.2682037353515625,
                -9.937145478033926e-06
            ]
        },
        {
            "children" : [
                4,
                6,
                8,
                17
            ],
            "name" : "CATRigHub001_00",
            "rotation" : [
                -0.7071068286895752,
                -1.4590916030954304e-08,
                2.9492090547478256e-08,
                0.7071068286895752
            ],
            "translation" : [
                -19.119211196899414,
                -3.822723388671875,
                107.49959564208984
            ]
        },
        {
            "children" : [
                18
            ],
            "name" : "_rootJoint",
            "rotation" : [
                -0.5,
                -0.5000000596046448,
                -0.5,
                0.5
            ]
        },
        {
            "children" : [
                0,
                19
            ],
            "name" : "Object_4"
        },
        {
            "children" : [
                20
            ],
            "name" : "RootNode"
        },
        {
            "children" : [
                21
            ],
            "name" : "Object_2"
        },
        {
            "children" : [
                22
            ],
            "name" : "Fish.FBX",
            "rotation" : [
                0.7071068286895752,
                0,
                0,
                0.7071068286895752
            ]
        },
        {
            "children" : [
                23
            ],
            "name" : "Sketchfab_model",
            "rotation" : [
                -0.7071068286895752,
                0,
                0,
                0.7071068286895752
            ]
        }
    ],
    "materials" : [
        {
            "doubleSided" : true,
            "name" : "material",
            "normalTexture" : {
                "index" : 0
            },
            "pbrMetallicRoughness" : {
                "baseColorTexture" : {
                    "index" : 1
                },
                "metallicRoughnessTexture" : {
                    "index" : 2
                }
            }
        }
    ],
    "meshes" : [
        {
            "name" : "RYBALOUPOLY_n_0",
            "primitives" : [
                {
                    "attributes" : {
                        "POSITION" : 0,
                        "NORMAL" : 1,
                        "TEXCOORD_0" : 2,
                        "TEXCOORD_1" : 3
                    },
                    "indices" : 4,
                    "material" : 0
                }
            ]
        }
    ],
    "textures" : [
        {
            "sampler" : 0,
            "source" : 0
        },
        {
            "sampler" : 0,
            "source" : 1
        },
        {
            "sampler" : 0,
            "source" : 2
        }
    ],
    "images" : [
        {
            "bufferView" : 5,
            "mimeType" : "image/png",
            "name" : "material_normal"
        },
        {
            "bufferView" : 6,
            "mimeType" : "image/png",
            "name" : "material_baseColor"
        },
        {
            "bufferView" : 7,
            "mimeType" : "image/png",
            "name" : "material_metallicRoughness"
        }
    ],
    "accessors" : [
        {
            "bufferView" : 0,
            "componentType" : 5126,
            "count" : 722,
            "max" : [
                75.93731689453125,
                210.28440856933594,
                264.9367370605469
            ],
            "min" : [
                -83.5826416015625,
                23.897354125976562,
                -259.3318786621094
            ],
            "type" : "VEC3"
        },
        {
            "bufferView" : 1,
            "componentType" : 5126,
            "count" : 722,
            "type" : "VEC3"
        },
        {
            "bufferView" : 2,
            "componentType" : 5126,
            "count" : 722,
            "type" : "VEC2"
        },
        {
            "bufferView" : 3,
            "componentType" : 5126,
            "count" : 722,
            "type" : "VEC2"
        },
        {
            "bufferView" : 4,
            "componentType" : 5123,
            "count" : 3444,
            "type" : "SCALAR"
        }
    ],
    "bufferViews" : [
        {
            "buffer" : 0,
            "byteLength" : 8664,
            "byteOffset" : 0
        },
        {
            "buffer" : 0,
            "byteLength" : 8664,
            "byteOffset" : 8664
        },
        {
            "buffer" : 0,
            "byteLength" : 5776,
            "byteOffset" : 17328
        },
        {
            "buffer" : 0,
            "byteLength" : 5776,
            "byteOffset" : 23104
        },
        {
            "buffer" : 0,
            "byteLength" : 6888,
            "byteOffset" : 28880
        },
        {
            "buffer" : 0,
            "byteLength" : 747532,
            "byteOffset" : 35768
        },
        {
            "buffer" : 0,
            "byteLength" : 1303393,
            "byteOffset" : 783300
        },
        {
            "buffer" : 0,
            "byteLength" : 398452,
            "byteOffset" : 2086696
        }
    ],
    "samplers" : [
        {
            "magFilter" : 9729,
            "minFilter" : 9987
        }
    ],
    "buffers" : [
        {
            "byteLength" : 2485148,
            "uri" : "data:application/octet-stream;base64,"
        }
    ]
}
